<?xml version="1.0" standalone="no"?>
<!DOCTYPE svg PUBLIC "-//W3C//DTD SVG 20010904//EN"
 "http://www.w3.org/TR/2001/REC-SVG-20010904/DTD/svg10.dtd">
<svg version="1.0" xmlns="http://www.w3.org/2000/svg"
 width="200.000000pt" height="200.000000pt" viewBox="0 0 200.000000 200.000000"
 preserveAspectRatio="xMidYMid meet">
<metadata>
Created by potrace 1.14, written by Peter Selinger 2001-2017
</metadata>
<g transform="translate(0.000000,200.000000) scale(0.100000,-0.100000)"
fill="#000000" stroke="none">
<path d="M163 1910 c-50 -11 -95 -43 -128 -89 l-30 -43 -3 -755 c-2 -517 1
-767 8 -795 15 -53 83 -121 136 -134 24 -7 353 -10 869 -10 l830 1 45 25 c24
14 58 45 75 68 l30 44 0 778 0 778 -30 44 c-17 23 -51 54 -75 68 l-45 25 -825
1 c-454 0 -839 -3 -857 -6z m1691 -93 c47 -31 59 -62 60 -150 l1 -82 -912 0
c-661 -1 -914 2 -917 10 -8 21 1 150 11 170 18 33 47 54 86 62 21 5 399 8 842
7 735 -1 806 -2 829 -17z m62 -941 c-1 -617 -1 -625 -22 -653 -43 -59 -6 -56
-894 -56 -888 0 -851 -3 -894 56 -21 28 -21 36 -21 653 l-1 624 916 0 916 0 0
-624z"/>
<path d="M176 1728 c-21 -30 -4 -58 34 -58 23 0 31 5 36 25 12 50 -41 75 -70
33z"/>
<path d="M340 1730 c-15 -28 4 -60 34 -60 34 0 49 22 36 54 -12 32 -54 36 -70
6z"/>
<path d="M512 1738 c-18 -18 -14 -45 10 -62 39 -27 71 9 52 58 -7 19 -45 21
-62 4z"/>
<path d="M608 1163 c-10 -2 -18 -8 -19 -11 0 -4 -2 -15 -4 -25 -2 -12 35 -56
111 -132 63 -63 114 -117 114 -120 0 -3 -49 -55 -109 -114 -60 -59 -111 -116
-115 -128 -4 -13 0 -26 14 -38 19 -17 21 -17 46 0 42 27 261 250 268 272 5 16
-22 49 -135 162 -77 77 -144 140 -148 140 -3 -1 -14 -3 -23 -6z"/>
<path d="M1012 738 c-17 -17 -15 -43 4 -58 22 -19 446 -19 468 -1 19 16 21 42
4 59 -17 17 -459 17 -476 0z"/>
</g>
</svg>
